<?xml version="1.0" encoding="utf-8"?>
<!-- Generator: Adobe Illustrator 25.0.0, SVG Export Plug-In . SVG Version: 6.00 Build 0)  -->
<svg version="1.1" id="Calque_1" xmlns="http://www.w3.org/2000/svg" xmlns:xlink="http://www.w3.org/1999/xlink" x="0px" y="0px"
	 viewBox="0 0 612 792" style="enable-background:new 0 0 612 792;" xml:space="preserve">
<style type="text/css">
	.st0{fill:#1515ED;stroke:#8BFFB8;}
	.st1{display:none;fill:#1799C4;}
</style>
<g>
	<path class="st0" d="M-119.58,253.45c-11.54,0-23.08,0.04-34.62-0.05c-1.3-0.01-2.85-0.38-3.83-1.15
		c-3.08-2.43-5.95-5.14-9.47-8.24C-150.2,242.49-134.46,245.15-119.58,253.45z"/>
	<path class="st0" d="M-68.11,285.87c0.95,2.6-1.76,3.13-3.79,3.41c-5.29,0.74-10.64,1.51-15.96,1.53
		c-11.71,0.03-23.42-0.37-35.13-0.66c-6.12-0.15-6.34-0.45-6.06-7.1c3.7,0,7.43,0,11.15,0c0.25,0,0.59-0.07,0.73,0.06
		c6.57,6.2,14.92,3.59,22.43,4.02C-86.03,287.64-77.22,286.38-68.11,285.87z"/>
	<path class="st0" d="M-192.18,248.75c12.43-6.43,24.95-3.52,29.32,7.64c-7.7,0-14.98,0.05-22.25-0.06
		c-0.92-0.01-2.09-0.63-2.68-1.35C-189.36,253.08-190.66,250.96-192.18,248.75z"/>
	<path class="st0" d="M-74.77,271.35c-4.83,0-9.71,0.44-14.47-0.12c-4.67-0.55-5.38-5.22-7.73-8.93c6.71-1.54,12.98-1.96,18.63,0.83
		c2.21,1.09,3.13,4.82,4.64,7.35C-74.05,270.76-74.41,271.05-74.77,271.35z"/>
	<path class="st0" d="M-99.43,260.59c1.11,2.5,1.79,4.03,2.62,5.9c-10.54-9.39-16.97-8.24-38.73-10.98
		c12.49-1.39,39.98,0.71,49.58,3.99C-90.71,259.89-94.73,260.21-99.43,260.59z"/>
	<path class="st0" d="M-205.02,255.89c3.07-1.92,5.96-4.62,9.29-5.4c1.56-0.37,3.99,2.96,6.02,4.62c-0.23,0.39-0.45,0.79-0.68,1.18
		c-4.63,0.28-9.26,0.55-13.89,0.83C-204.52,256.71-204.77,256.3-205.02,255.89z"/>
	<path class="st0" d="M-139.04,268.65c7.59,6.98,6.84,21.24-1.46,26.3C-135.19,286.36-134.52,277.99-139.04,268.65z"/>
	<path class="st0" d="M-81.46,293.39c-4.59,5.07-12.81,5.47-18.47,0C-93.32,293.39-87.22,293.39-81.46,293.39z"/>
	<path class="st0" d="M-102.07,267.74c-0.57,0.35-1.41,1.25-2.34,1.36c-2.58,0.29-6.34-2.83-6.26-5.27c0.03-0.86,1.1-2.26,1.89-2.41
		C-106.43,260.99-102.21,264.73-102.07,267.74z"/>
	<path class="st0" d="M-116.59,269.29c-2.14-2.22-3.78-3.93-5.43-5.64c0.9-0.77,2.3-2.38,2.6-2.19c2.15,1.32,4.08,3.02,6.08,4.59
		C-114.17,266.89-115,267.71-116.59,269.29z"/>
	<path class="st0" d="M-138.55,296.48c2.1-2.66,3.84-4.86,5.38-6.81c0.9,1.06,2,2.34,3.41,4
		C-131.3,296.99-134.91,296.23-138.55,296.48z"/>
	<path class="st0" d="M-200.11,288.75c8.16,0.65,16.31,1.29,24.47,1.94c-0.01,0.21-0.02,0.41-0.04,0.62
		c-8.17-0.49-16.34-0.97-24.5-1.46C-200.16,289.48-200.14,289.11-200.11,288.75z"/>
	<path class="st0" d="M-179.24,279.34c-5.33,0-12.29,0.13-19.24-0.09c-1.79-0.06-3.55-1.22-5.13-2.46
		C-195.16,280.07-186.22,278.03-179.24,279.34z"/>
</g>
<path class="st1" d="M-300,224"/>
<text transform="matrix(1 0 0 1 -194.5679 304.2339)" class="st0" style="font-family:'MyriadPro-Regular'; font-size:12px;">CaramazinLease</text>
<rect x="-114.58" y="303.99" style="fill:none;" width="2.58" height="0.01"/>
</svg>
