<svg xmlns="http://www.w3.org/2000/svg" viewBox="0 0 138.29 64.63"><defs><style>.cls-1,.cls-2{fill:#1515ed;stroke:#8bffb8;}.cls-2{font-size:12px;font-family:MyriadPro-Regular, Myriad Pro;}.cls-3{letter-spacing:-0.01em;}.cls-4{letter-spacing:-0.01em;}.cls-5{letter-spacing:-0.01em;}</style></defs><g id="Calque_2" data-name="Calque 2"><g id="Calque_1-2" data-name="Calque 1"><path class="cls-1" d="M86.12,10.35c-11.54,0-23.08,0-34.62,0a6.65,6.65,0,0,1-3.83-1.15C44.59,6.72,41.72,4,38.2.91,55.5-.62,71.25,2,86.12,10.35Z"/><path class="cls-1" d="M137.59,42.77c.95,2.6-1.76,3.13-3.79,3.41a119.36,119.36,0,0,1-16,1.53c-11.71,0-23.42-.38-35.12-.66-6.12-.15-6.34-.45-6.06-7.1H87.8c.25,0,.59-.07.73.06,6.57,6.21,14.92,3.6,22.43,4C119.67,44.53,128.48,43.28,137.59,42.77Z"/><path class="cls-1" d="M13.52,5.65C26-.79,38.47,2.12,42.84,13.29c-7.7,0-15,.05-22.26-.06a4,4,0,0,1-2.68-1.35C16.35,10,15.05,7.86,13.52,5.65Z"/><path class="cls-1" d="M130.94,28.24c-4.83,0-9.71.44-14.47-.12s-5.38-5.22-7.74-8.93c6.72-1.55,13-2,18.63.83,2.22,1.09,3.14,4.82,4.65,7.34Z"/><path class="cls-1" d="M106.28,17.49l2.62,5.9c-10.54-9.39-17-8.24-38.73-11,12.49-1.39,40,.71,49.58,4Z"/><path class="cls-1" d="M.68,12.79c3.07-1.91,6-4.61,9.3-5.4,1.56-.37,4,3,6,4.62l-.68,1.18L1.43,14Z"/><path class="cls-1" d="M66.67,25.55c7.59,7,6.84,21.24-1.47,26.3C70.51,43.26,71.18,34.88,66.67,25.55Z"/><path class="cls-1" d="M124.25,50.29c-4.59,5.07-12.82,5.47-18.48,0Z"/><path class="cls-1" d="M103.64,24.64c-.57.35-1.41,1.25-2.34,1.36-2.58.29-6.34-2.83-6.26-5.27a3.23,3.23,0,0,1,1.89-2.41C99.27,17.89,103.49,21.63,103.64,24.64Z"/><path class="cls-1" d="M89.12,26.19l-5.43-5.64c.89-.77,2.29-2.37,2.6-2.18A65,65,0,0,1,92.37,23Z"/><path class="cls-1" d="M67.16,53.38c2.1-2.65,3.84-4.85,5.38-6.81l3.41,4C74.4,53.89,70.79,53.13,67.16,53.38Z"/><path class="cls-1" d="M5.59,45.64l24.47,2,0,.61L5.52,46.75Z"/><path class="cls-1" d="M26.46,36.23c-5.33,0-12.29.14-19.24-.09-1.79,0-3.55-1.22-5.13-2.46C10.54,37,19.48,34.93,26.46,36.23Z"/><text class="cls-2" transform="translate(11.14 61.13)"><tspan class="cls-3">C</tspan><tspan x="6.88" y="0">a</tspan><tspan class="cls-4" x="12.66" y="0">r</tspan><tspan x="16.52" y="0">amazin</tspan><tspan class="cls-5" x="52.7" y="0">L</tspan><tspan x="58.2" y="0">ease</tspan></text><text/></g></g></svg>